<svg xmlns="http://www.w3.org/2000/svg" viewBox="0 0 111.62 38.44"><defs><style>.cls-1{fill:#fff;}</style></defs><g id="レイヤー_2" data-name="レイヤー 2"><g id="レイヤー_2-2" data-name="レイヤー 2"><path class="cls-1" d="M10.62,7.23l.45-.51,1.06.8a.59.59,0,0,1-.45.18c-.22,2.58-.72,2.87-2,2.89,0-.56-.12-.73-1.08-.88V9.53c.34,0,1.06,0,1.3,0a.52.52,0,0,0,.36-.08,3.89,3.89,0,0,0,.48-2H7.3v3.41a1,1,0,0,1-.79.28H6.35V8.11a12.21,12.21,0,0,1-5,2.82l-.1-.21A11.56,11.56,0,0,0,5.5,7.5H3.23L3,8.19a1,1,0,0,1-.42.1,2.53,2.53,0,0,1-.57-.1c.32-1,.7-2.54.88-3.37L4,5.3H6.35V3.57H2.27l-.08-.26h7.9l.41-.52,1.12.78a.71.71,0,0,1-.45.23V5.85s-.28.29-1,.29V5.58H7.3V7.23ZM4.06,1.62c.64.31.87.69.87,1a.48.48,0,0,1-.87.33,2.57,2.57,0,0,0-.47-1.31H3A6.42,6.42,0,0,1,1.39,3.36l-.17-.12A9.68,9.68,0,0,0,2.74,0L4.05.47C4,.6,3.88.67,3.61.66c-.12.24-.26.47-.4.7h2l.52-.7,1,.73c-.1.17-.25.23-.56.23ZM3.31,7.23h3V5.58H3.71Zm8-6.62,1.11.78c-.1.17-.24.23-.58.23H9.14c.7.29.95.68.95,1a.5.5,0,0,1-.49.54A.49.49,0,0,1,9.21,3a2.79,2.79,0,0,0-.7-1.35H7.73A6,6,0,0,1,5.86,3.15L5.72,3A8.61,8.61,0,0,0,7.55,0L8.84.58c-.06.12-.17.17-.46.14-.13.22-.29.43-.43.64h2.77Zm-4,3V5.3h2.91V3.57Z"/><path class="cls-1" d="M10.89,28.09l1.16.87a.9.9,0,0,1-.5.25V38a1.18,1.18,0,0,1-1,.35v-.91H3v.66s-.1.39-1,.39V28.21l1,.47h7.33ZM3,37.12h7.53V28.94H3Zm5.35-6.51,1.12.79a1,1,0,0,1-.5.23V35.1s-.24.3-.91.3v-.74H5.38v.53s-.14.31-.89.31V30.71l1,.42H8Zm-3,3.78H8.09v-3H5.38Z"/><path class="cls-1" d="M1.21,19.86a2.46,2.46,0,0,1,2.14-1.17A2.54,2.54,0,0,1,6,21.38a2.77,2.77,0,0,1-3,3C1.35,24.37,0,23.15,0,20c0-1.82.5-4.67,3.23-4.67,1.64,0,2.41.94,2.41,1.63,0,.3-.16.53-.43.53s-.48-.21-.68-.66a1.35,1.35,0,0,0-1.36-1c-1.37,0-2,1.84-2,4Zm1.87-.65a1.88,1.88,0,0,0-1.83,1.91c0,1.34.6,2.76,1.81,2.76s1.8-1.18,1.8-2.43C4.86,20.92,4.65,19.21,3.08,19.21Z"/><path class="cls-1" d="M7.56,17.44,8,15.5h5.38l.13.24a13.94,13.94,0,0,0-2.37,4.55,14.46,14.46,0,0,0-.69,4H9.14A12.05,12.05,0,0,1,10,20.2a16.43,16.43,0,0,1,2.26-3.85h-3c-.86,0-1,.09-1.24,1.09Z"/><path class="cls-1" d="M28,25.14c1.41-.36,2.94-.78,4.44-1.17l.09.42c-1.92,1.05-4.8,2.55-8.7,4.41a1.06,1.06,0,0,1-.66.75l-1.38-2.94c.84-.15,2.19-.48,3.84-.9V17.64H22.31L22.13,17h3.45V9.21H22.07l-.18-.66h6.63l1.44-2,2.7,2.07c-.24.42-.6.57-1.41.57H28V17h.75L30,15.09,32.27,17c-.24.42-.6.6-1.38.6H28ZM47.42,29.4l2.91,2.22c-.24.42-.6.6-1.44.6H30.11l-.18-.69h9.6V25.86H33l-.18-.66h6.72V19.83H35.72v1.26s-.33.9-2.34.9V6.48L35.9,7.62h9.66l1-1.38,2.91,2.07a2.35,2.35,0,0,1-1.29.6V20.85c0,.09-.66.81-2.37.81V19.83H42V25.2h2.91l1.47-2,2.79,2.1c-.24.42-.6.57-1.44.57H42v5.67h3.93ZM39.53,8.28H35.72v5.07h3.81ZM35.72,19.14h3.81V14H35.72ZM45.86,8.28H42v5.07h3.9ZM42,19.14h3.9V14H42Z"/><path class="cls-1" d="M77.45,27.72,80.69,30c-.24.39-.6.6-1.47.6H52.88l-.21-.69h12.6V10.53H54.92l-.21-.66H73.76L75.5,7.65l3.18,2.28c-.24.45-.6.6-1.44.6H67.82V29.94h7.92Z"/><path class="cls-1" d="M99.11,23.31a11.5,11.5,0,0,0,3.45,4,48.39,48.39,0,0,0,4.56-3.45l2.55,1.86a.64.64,0,0,1-.54.27,1.75,1.75,0,0,1-.6-.12c-1.29.57-3.42,1.35-5.28,2a23.44,23.44,0,0,0,8.37,3.12l0,.33a2.68,2.68,0,0,0-2,2.13,19.38,19.38,0,0,1-7.29-4.08l.06.48c-2.58.75-6.27,1.71-11.52,2.91a1.08,1.08,0,0,1-.75.66l-1.35-2.94,4-.27V23.31H88.49a19.15,19.15,0,0,1-4.89,10L83.18,33c3.21-5.55,3.54-12.3,3.54-18.45V6.06L89.6,7.2h16.56l1-1.38,3,2.07a2.47,2.47,0,0,1-1.26.63v4.89a3.64,3.64,0,0,1-2.46.63V12.93H89.18v1.62a45.87,45.87,0,0,1-.57,8.1h5.52V18H89.39l-.18-.66h4.92v-3.6l3.48.3c0,.39-.33.57-1.14.72v2.58h5.67V13.77l3.45.3c0,.39-.3.57-1.14.72v2.55h1.62l1.41-1.89,2.67,1.95c-.24.42-.6.6-1.41.6h-4.29v4.65h2.88l1.41-1.89,2.67,2c-.24.42-.57.57-1.41.57Zm7.35-15.45H89.18v4.41h17.28ZM95.06,23.31v6.63c2.19-.18,4.71-.42,7.26-.66a14.63,14.63,0,0,1-3.87-6ZM102.14,18H96.47v4.65h5.67Z"/></g></g></svg>