<svg xmlns="http://www.w3.org/2000/svg" width="1149.061" height="684.068" viewBox="0 0 1149.061 684.068">
  <g id="グループ_1" data-name="グループ 1" transform="translate(-189.413 -62.087)">
    <g id="多角形_1" data-name="多角形 1" transform="translate(306.793 277.913) rotate(45)" fill="#a3d4dc">
      <path d="M 33.02741241455078 164.6623382568359 L 52.39204025268555 102.7426910400391 L 52.49716567993164 102.4065399169922 L 52.21606063842773 102.1943740844727 L 1.492303490638733 63.90639495849609 L 64.17027282714844 63.90639495849609 L 64.53778839111328 63.90639495849609 L 64.64747619628906 63.55564498901367 L 84 1.675146222114563 L 103.3524551391602 63.55564498901367 L 103.4621429443359 63.90639495849609 L 103.8296661376953 63.90639495849609 L 166.5076904296875 63.90639495849609 L 115.783935546875 102.1943740844727 L 115.5028305053711 102.4065399169922 L 115.6079559326172 102.7426910400391 L 134.9724731445313 164.6623382568359 L 84.30123138427734 126.4137268066406 L 84 126.1863327026367 L 83.69876861572266 126.4137268066406 L 33.02741241455078 164.6623382568359 Z" stroke="none"/>
      <path d="M 84 3.350265502929688 L 65.12469482421875 63.70487213134766 L 64.90530395507813 64.40639495849609 L 64.17028045654297 64.40639495849609 L 2.984634399414063 64.40639495849609 L 52.51728057861328 101.795280456543 L 53.07947540283203 102.2196502685547 L 52.86923980712891 102.8919143676758 L 33.96965026855469 163.3246154785156 L 83.39752197265625 126.0146331787109 L 84 125.5598678588867 L 84.60247802734375 126.0146331787109 L 134.0302429199219 163.3246154785156 L 115.1307601928711 102.8919143676758 L 114.9205169677734 102.2196502685547 L 115.4827117919922 101.795280456543 L 165.0153656005859 64.40639495849609 L 103.8296737670898 64.40639495849609 L 103.0946502685547 64.40639495849609 L 102.8752593994141 63.70487213134766 L 84 3.350265502929688 M 84 0 L 103.8296737670898 63.40639495849609 L 168 63.40639495849609 L 116.0851745605469 102.5934295654297 L 135.9147033691406 166 L 84 126.8127822875977 L 32.08518981933594 166 L 51.91482543945313 102.5934295654297 L 0 63.40639495849609 L 64.17028045654297 63.40639495849609 L 84 0 Z" stroke="none" fill="#707070"/>
    </g>
    <g id="多角形_2" data-name="多角形 2" transform="translate(512.254 465.12) rotate(30)" fill="#a3d4dc">
      <path d="M 166.5247802734375 203.6605834960938 L 103.8016586303711 156.2073211669922 L 103.5 155.9790802001953 L 103.1983413696289 156.2073211669922 L 40.47522735595703 203.6605834960938 L 64.44384002685547 126.8458938598633 L 64.54855346679688 126.5103149414063 L 64.26818084716797 126.2982330322266 L 1.489597916603088 78.80305480957031 L 79.06694793701172 78.80305480957031 L 79.43470764160156 78.80305480957031 L 79.54426574707031 78.45197296142578 L 103.5 1.678623676300049 L 127.4557113647461 78.45197296142578 L 127.5652618408203 78.80305480957031 L 127.9330291748047 78.80305480957031 L 205.5104064941406 78.80302429199219 L 142.7318420410156 126.2982330322266 L 142.4514770507813 126.5103149414063 L 142.5561828613281 126.8458938598633 L 166.5247802734375 203.6605834960938 Z" stroke="none"/>
      <path d="M 103.5 3.357192993164063 L 80.02155303955078 78.60089111328125 L 79.80247497558594 79.30302429199219 L 79.06694793701172 79.30302429199219 L 2.979217529296875 79.30302429199219 L 64.56986999511719 125.8994979858398 L 65.13055419921875 126.3236846923828 L 64.92112731933594 126.9948425292969 L 41.41693115234375 202.3211517333984 L 102.8966598510742 155.8085784912109 L 103.5 155.3521118164063 L 104.1033401489258 155.8085784912109 L 165.5830688476563 202.3211517333984 L 142.0788879394531 126.9948425292969 L 141.8694763183594 126.3236846923828 L 142.4301605224609 125.8994979858398 L 204.0207824707031 79.30302429199219 L 127.9330291748047 79.30302429199219 L 127.1975021362305 79.30302429199219 L 126.9784240722656 78.60089111328125 L 103.5 3.357192993164063 M 103.5 0 L 127.9330291748047 78.30302429199219 L 207 78.30302429199219 L 143.0335083007813 126.6969757080078 L 167.4664916992188 205 L 103.5 156.6060485839844 L 39.53349304199219 205 L 63.96652221679688 126.6969757080078 L 0 78.30302429199219 L 79.06694793701172 78.30302429199219 L 103.5 0 Z" stroke="none" fill="#707070"/>
    </g>
    <g id="多角形_3" data-name="多角形 3" transform="matrix(0.966, 0.259, -0.259, 0.966, 597.844, 62.087)" fill="#a3d4dc">
      <path d="M 33.02737426757813 164.6623229980469 L 52.39206314086914 102.7428970336914 L 52.49718856811523 102.4067535400391 L 52.21608352661133 102.194580078125 L 1.49229633808136 63.90635299682617 L 64.17027282714844 63.90635299682617 L 64.53778839111328 63.90635299682617 L 64.64747619628906 63.55560302734375 L 84 1.675143599510193 L 103.3525009155273 63.55560302734375 L 103.4621887207031 63.90635299682617 L 103.8297119140625 63.90635299682617 L 166.5077056884766 63.90635299682617 L 115.7839202880859 102.194580078125 L 115.502815246582 102.4067535400391 L 115.6079406738281 102.7428970336914 L 134.9726104736328 164.6623229980469 L 84.30123138427734 126.4136428833008 L 84 126.1862487792969 L 83.69876861572266 126.4136428833008 L 33.02737426757813 164.6623229980469 Z" stroke="none"/>
      <path d="M 84 3.350250244140625 L 65.12469482421875 63.70482635498047 L 64.90530395507813 64.40634918212891 L 64.17028045654297 64.40634918212891 L 2.984649658203125 64.40634918212891 L 52.51732635498047 101.7955017089844 L 53.07949829101563 102.2198638916016 L 52.8692626953125 102.8921356201172 L 33.9696044921875 163.3246154785156 L 83.39752197265625 126.0145645141602 L 84 125.5597991943359 L 84.60247802734375 126.0145645141602 L 134.0303955078125 163.3246154785156 L 115.1307373046875 102.8921356201172 L 114.9205017089844 102.2198638916016 L 115.4826736450195 101.7955017089844 L 165.0153503417969 64.40634918212891 L 103.8296966552734 64.40634918212891 L 103.0946731567383 64.40634918212891 L 102.8752822875977 63.70482635498047 L 84 3.350250244140625 M 84 0 L 103.8296966552734 63.40634918212891 L 168 63.40634918212891 L 116.0851516723633 102.5936508178711 L 135.9148559570313 166 L 84 126.8127136230469 L 32.08515930175781 166 L 51.91484832763672 102.5936508178711 L 0 63.40634918212891 L 64.17028045654297 63.40634918212891 L 84 0 Z" stroke="none" fill="#707070"/>
    </g>
    <path id="パス_1" data-name="パス 1" d="M-67.216-86.416l-7.924,3.446,7.924,3.446-8.641-.075,5.838,6.371-7.863-3.583,2.742,8.195-5.726-6.472-.828,8.6-2.6-8.241-4.255,7.521.978-8.586-6.946,5.14,4.386-7.445-8.436,1.87,7.035-5.018L-100-82.97l8.468-1.723-7.035-5.018,8.436,1.87-4.386-7.445,6.946,5.14-.978-8.586,4.255,7.521,2.6-8.241.828,8.6,5.726-6.472-2.742,8.195,7.863-3.583-5.838,6.371Z" transform="translate(472 310)" fill="#a2a2a2"/>
    <g id="多角形_4" data-name="多角形 4" transform="translate(903.254 305.12) rotate(30)" fill="#a3d4dc">
      <path d="M 74.296630859375 90.66141510009766 L 46.80146026611328 69.88285827636719 L 46.5 69.65504455566406 L 46.19853973388672 69.88285827636719 L 18.70340538024902 90.66141510009766 L 29.21583557128906 57.00821304321289 L 29.32074165344238 56.67236328125 L 29.04003524780273 56.46022415161133 L 1.490932106971741 35.6408805847168 L 35.52284622192383 35.6408805847168 L 35.89048385620117 35.6408805847168 L 36.00010681152344 35.28996658325195 L 46.4999885559082 1.6769198179245 L 56.99988174438477 35.28996658325195 L 57.10950469970703 35.6408805847168 L 57.47714233398438 35.6408805847168 L 91.50907135009766 35.6408805847168 L 63.95997619628906 56.46022415161133 L 63.67927169799805 56.67236328125 L 63.78417587280273 57.00821304321289 L 74.296630859375 90.66141510009766 Z" stroke="none"/>
      <path d="M 46.4999885559082 3.35382080078125 L 36.47736358642578 35.43904876708984 L 36.25812530517578 36.14088821411133 L 35.52285003662109 36.14088821411133 L 2.981842041015625 36.14088821411133 L 29.34148788452148 56.06132507324219 L 29.90291213989258 56.48559951782227 L 29.69308853149414 57.15728759765625 L 19.64535522460938 89.32285308837891 L 45.89708709716797 69.48396301269531 L 46.5 69.0283203125 L 47.10291290283203 69.48396301269531 L 73.35466003417969 89.32285308837891 L 63.30691528320313 57.15728759765625 L 63.09708786010742 56.48559951782227 L 63.65851211547852 56.06132507324219 L 90.01815795898438 36.14088821411133 L 57.47713851928711 36.14088821411133 L 56.74186325073242 36.14088821411133 L 56.52262496948242 35.43904876708984 L 46.4999885559082 3.35382080078125 M 46.4999885559082 0 L 57.47713851928711 35.14088821411133 L 93 35.14088821411133 L 64.26142883300781 56.85912322998047 L 75.23858642578125 92 L 46.5 70.28176116943359 L 17.76142120361328 92 L 28.73857879638672 56.85912322998047 L 0 35.14088821411133 L 35.52285003662109 35.14088821411133 L 46.4999885559082 0 Z" stroke="none" fill="#707070"/>
    </g>
    <g id="多角形_5" data-name="多角形 5" transform="translate(1250.793 131.913) rotate(45)" fill="#a3d4dc">
      <path d="M 24.62508392333984 120.6656112670898 L 38.79511642456055 75.54996490478516 L 38.90103149414063 75.21278381347656 L 38.61851501464844 75.00045013427734 L 1.497424840927124 47.0998649597168 L 47.36378479003906 47.0998649597168 L 47.73081588745117 47.0998649597168 L 47.84080123901367 46.74969863891602 L 62 1.6685950756073 L 76.1591796875 46.74969863891602 L 76.2691650390625 47.0998649597168 L 76.63619995117188 47.0998649597168 L 122.502571105957 47.0998649597168 L 85.3814697265625 75.00045013427734 L 85.09895324707031 75.21278381347656 L 85.20486450195313 75.54996490478516 L 99.37490081787109 120.6656112670898 L 62.3004150390625 92.800048828125 L 62 92.57424926757813 L 61.6995849609375 92.800048828125 L 24.62508392333984 120.6656112670898 Z" stroke="none"/>
      <path d="M 62 3.337226867675781 L 48.31783294677734 46.89951324462891 L 48.09786987304688 47.59986877441406 L 47.36378479003906 47.59986877441406 L 2.994857788085938 47.59986877441406 L 38.91891479492188 74.60075378417969 L 39.48394775390625 75.02543640136719 L 39.27214813232422 75.69978332519531 L 25.56828308105469 119.3312149047852 L 61.39918518066406 92.40035247802734 L 62 91.94876861572266 L 62.60081481933594 92.40035247802734 L 98.43170166015625 119.3312072753906 L 84.72782897949219 75.69978332519531 L 84.51603698730469 75.02543640136719 L 85.08106994628906 74.60075378417969 L 121.0051422119141 47.59986877441406 L 76.63619995117188 47.59986877441406 L 75.90211486816406 47.59986877441406 L 75.68215179443359 46.89951324462891 L 62 3.337226867675781 M 62 0 L 76.63619995117188 46.59986877441406 L 124 46.59986877441406 L 85.681884765625 75.40013122558594 L 100.3180847167969 122 L 62 93.19973754882813 L 23.68190002441406 122 L 38.31809997558594 75.40013122558594 L 0 46.59986877441406 L 47.36378479003906 46.59986877441406 L 62 0 Z" stroke="none" fill="#707070"/>
    </g>
    <path id="パス_2" data-name="パス 2" d="M-67.216-86.416l-7.924,3.446,7.924,3.446-8.641-.075,5.838,6.371-7.863-3.583,2.742,8.195-5.726-6.472-.828,8.6-2.6-8.241-4.255,7.521.978-8.586-6.946,5.14,4.386-7.445-8.436,1.87,7.035-5.018L-100-82.97l8.468-1.723-7.035-5.018,8.436,1.87-4.386-7.445,6.946,5.14-.978-8.586,4.255,7.521,2.6-8.241.828,8.6,5.726-6.472-2.742,8.195,7.863-3.583-5.838,6.371Z" transform="translate(1060 263)" fill="#a2a2a2"/>
    <g id="多角形_6" data-name="多角形 6" transform="matrix(0.819, 0.574, -0.574, 0.819, 1144.814, 432.77)" fill="#a3d4dc">
      <path d="M 124.4552459716797 151.6631011962891 L 77.80104064941406 116.4824371337891 L 77.5 116.2554397583008 L 77.19895935058594 116.4824371337891 L 30.54485130310059 151.6631011962891 L 48.37482070922852 94.70855712890625 L 48.48012161254883 94.37217712402344 L 48.19869995117188 94.15995788574219 L 1.493523716926575 58.94084167480469 L 59.20476150512695 58.94084167480469 L 59.57215881347656 58.94084167480469 L 59.68191909790039 58.5902214050293 L 77.5 1.673578977584839 L 95.31813812255859 58.5902214050293 L 95.42790222167969 58.94084167480469 L 95.79530334472656 58.94084167480469 L 153.5064849853516 58.94081878662109 L 106.8013763427734 94.15995788574219 L 106.5199584960938 94.37217712402344 L 106.6252593994141 94.70855712890625 L 124.4552459716797 151.6631011962891 Z" stroke="none"/>
      <path d="M 77.5 3.347152709960938 L 60.15908050537109 58.73960113525391 L 59.93955993652344 59.44084167480469 L 59.20475769042969 59.44084167480469 L 2.987045288085938 59.44084167480469 L 48.49974060058594 93.7607421875 L 49.06259918212891 94.1851806640625 L 48.85198211669922 94.85794067382813 L 31.48728179931641 150.3261871337891 L 76.89791870117188 116.0832214355469 L 77.5 115.6292190551758 L 78.10208129882813 116.0832214355469 L 123.5127792358398 150.3262023925781 L 106.1481018066406 94.85794067382813 L 105.9374847412109 94.1851806640625 L 106.5003356933594 93.7607421875 L 152.0129547119141 59.44081878662109 L 95.79530334472656 59.44084167480469 L 95.06050109863281 59.44084167480469 L 94.84098052978516 58.73960113525391 L 77.5 3.347152709960938 M 77.5 0 L 95.79530334472656 58.44084167480469 L 155 58.44081878662109 L 107.1024169921875 94.55918121337891 L 125.3976821899414 153 L 77.5 116.8816604614258 L 29.60237884521484 153 L 47.89765930175781 94.55918121337891 L 0 58.44084167480469 L 59.20475769042969 58.44084167480469 L 77.5 0 Z" stroke="none" fill="#707070"/>
    </g>
    <path id="パス_3" data-name="パス 3" d="M-67.216-86.416l-7.924,3.446,7.924,3.446-8.641-.075,5.838,6.371-7.863-3.583,2.742,8.195-5.726-6.472-.828,8.6-2.6-8.241-4.255,7.521.978-8.586-6.946,5.14,4.386-7.445-8.436,1.87,7.035-5.018L-100-82.97l8.468-1.723-7.035-5.018,8.436,1.87-4.386-7.445,6.946,5.14-.978-8.586,4.255,7.521,2.6-8.241.828,8.6,5.726-6.472-2.742,8.195,7.863-3.583-5.838,6.371Z" transform="translate(924 659)" fill="#a2a2a2"/>
    <path id="パス_4" data-name="パス 4" d="M-67.216-86.416l-7.924,3.446,7.924,3.446-8.641-.075,5.838,6.371-7.863-3.583,2.742,8.195-5.726-6.472-.828,8.6-2.6-8.241-4.255,7.521.978-8.586-6.946,5.14,4.386-7.445-8.436,1.87,7.035-5.018L-100-82.97l8.468-1.723-7.035-5.018,8.436,1.87-4.386-7.445,6.946,5.14-.978-8.586,4.255,7.521,2.6-8.241.828,8.6,5.726-6.472-2.742,8.195,7.863-3.583-5.838,6.371Z" transform="translate(1372 495)" fill="#a2a2a2"/>
    <path id="パス_5" data-name="パス 5" d="M-67.216-86.416l-7.924,3.446,7.924,3.446-8.641-.075,5.838,6.371-7.863-3.583,2.742,8.195-5.726-6.472-.828,8.6-2.6-8.241-4.255,7.521.978-8.586-6.946,5.14,4.386-7.445-8.436,1.87,7.035-5.018L-100-82.97l8.468-1.723-7.035-5.018,8.436,1.87-4.386-7.445,6.946,5.14-.978-8.586,4.255,7.521,2.6-8.241.828,8.6,5.726-6.472-2.742,8.195,7.863-3.583-5.838,6.371Z" transform="translate(300 713)" fill="#a0a0a0"/>
  </g>
</svg>
