<svg xmlns="http://www.w3.org/2000/svg" width="35.562" height="18.567" viewBox="0 0 35.562 18.567">
  <path id="前面オブジェクトで型抜き_4" data-name="前面オブジェクトで型抜き 4" d="M18.125,18.567a21.9,21.9,0,0,1-6.776-1.118,28.008,28.008,0,0,1-5.428-2.46,28.257,28.257,0,0,1-4.912-3.579,2.648,2.648,0,0,1-1-1.715,3.081,3.081,0,0,1,1-2.366A23.647,23.647,0,0,1,7.449,2.7,26.208,26.208,0,0,1,12.363.782,21.218,21.218,0,0,1,17.963,0h.162A21.373,21.373,0,0,1,28.783,3.056a30.8,30.8,0,0,1,6.094,4.752,2.372,2.372,0,0,1,.673,1.784,1.867,1.867,0,0,1-.673,1.184,26.758,26.758,0,0,1-4.73,3.9,25.5,25.5,0,0,1-5.3,2.678A19.8,19.8,0,0,1,18.125,18.567Zm-.6-16.248a6.944,6.944,0,0,0-4.989,2.105,7.284,7.284,0,0,0,0,10.166,6.965,6.965,0,0,0,9.979,0,7.284,7.284,0,0,0,0-10.166A6.945,6.945,0,0,0,17.526,2.319Zm0,10.2a3.015,3.015,0,1,1,2.959-3.014A2.991,2.991,0,0,1,17.526,12.521Z" fill="#fff"/>
</svg>
