<?xml version="1.0" encoding="utf-8"?>
<!-- Generator: Adobe Illustrator 16.0.0, SVG Export Plug-In . SVG Version: 6.00 Build 0)  -->
<!DOCTYPE svg PUBLIC "-//W3C//DTD SVG 1.1//EN" "http://www.w3.org/Graphics/SVG/1.1/DTD/svg11.dtd">
<svg version="1.1" id="レイヤー_1" xmlns="http://www.w3.org/2000/svg" xmlns:xlink="http://www.w3.org/1999/xlink" x="0px"
	 y="0px" width="40px" height="40px" viewBox="0 0 40 40" enable-background="new 0 0 40 40" xml:space="preserve">
<g>
	<path fill="#444D52" stroke="#FFFFFF" stroke-width="1.4" stroke-miterlimit="10" d="M19.988,6.482c4.404,0,4.92,0.013,6.659,0.09
		c1.609,0.077,2.485,0.348,3.065,0.567c0.773,0.296,1.313,0.657,1.895,1.236c0.579,0.579,0.939,1.121,1.236,1.894
		c0.231,0.58,0.489,1.455,0.567,3.065c0.077,1.739,0.089,2.254,0.089,6.659c0,4.406-0.012,4.922-0.089,6.659
		c-0.078,1.61-0.35,2.485-0.567,3.066c-0.297,0.773-0.657,1.313-1.236,1.894c-0.581,0.579-1.121,0.94-1.895,1.236
		c-0.58,0.233-1.456,0.489-3.065,0.566c-1.739,0.08-2.255,0.09-6.659,0.09c-4.406,0-4.921-0.01-6.66-0.09
		c-1.61-0.077-2.486-0.348-3.065-0.566c-0.773-0.296-1.315-0.657-1.894-1.236c-0.58-0.581-0.94-1.12-1.236-1.894
		c-0.232-0.581-0.49-1.456-0.567-3.066c-0.077-1.737-0.09-2.253-0.09-6.659c0-4.405,0.013-4.92,0.09-6.659
		c0.078-1.61,0.349-2.486,0.567-3.065C7.429,9.496,7.79,8.955,8.369,8.375c0.579-0.58,1.121-0.94,1.894-1.236
		c0.58-0.232,1.455-0.49,3.065-0.567C15.067,6.495,15.583,6.482,19.988,6.482 M19.988,3.507c-4.483,0-5.037,0.013-6.801,0.103
		c-1.752,0.078-2.95,0.361-3.993,0.76C8.111,4.795,7.185,5.348,6.27,6.276C5.355,7.204,4.788,8.105,4.363,9.2
		c-0.413,1.043-0.683,2.241-0.76,4.006C3.513,14.958,3.5,15.511,3.5,19.994c0,4.482,0.013,5.036,0.103,6.802
		c0.078,1.752,0.361,2.949,0.76,4.007c0.425,1.081,0.978,2.01,1.907,2.923c0.915,0.915,1.841,1.481,2.924,1.904
		c1.043,0.413,2.241,0.684,4.006,0.761c1.765,0.078,2.318,0.104,6.801,0.104c4.482,0,5.037-0.012,6.801-0.104
		c1.752-0.077,2.95-0.358,4.006-0.761c1.082-0.423,2.01-0.978,2.925-1.904c0.914-0.913,1.48-1.842,1.906-2.923
		c0.411-1.046,0.684-2.241,0.76-4.007c0.078-1.766,0.102-2.319,0.102-6.802c0-4.483-0.012-5.036-0.102-6.8
		c-0.076-1.752-0.361-2.95-0.76-4.007c-0.426-1.082-0.979-2.01-1.906-2.924c-0.928-0.915-1.855-1.468-2.95-1.894
		c-1.044-0.412-2.241-0.683-4.007-0.76C25.024,3.52,24.471,3.507,19.988,3.507z M19.988,11.532c-4.676,0-8.463,3.787-8.463,8.462
		c0,4.677,3.787,8.463,8.463,8.463c4.675,0,8.463-3.786,8.463-8.463C28.451,15.318,24.663,11.532,19.988,11.532z M19.988,25.495
		c-3.04,0-5.5-2.46-5.5-5.501c0-3.04,2.46-5.5,5.5-5.5s5.5,2.46,5.5,5.5C25.488,23.035,23.028,25.495,19.988,25.495z M30.77,11.197
		c0,1.094-0.889,1.983-1.984,1.983c-1.095,0-1.971-0.889-1.971-1.983c0-1.095,0.889-1.984,1.984-1.984
		C29.893,9.213,30.77,10.102,30.77,11.197z"/>
</g>
</svg>
