<svg id="good" xmlns="http://www.w3.org/2000/svg" width="23" height="24.535" viewBox="0 0 23 24.535">
  <path id="パス_2" data-name="パス 2" d="M.534,7.1v8.027A3.035,3.035,0,0,0,2.181,16.68a7.166,7.166,0,0,0,2.654,0V5.734H2.448A2.629,2.629,0,0,0,.534,7.1Z" transform="translate(-0.534 7.72)" fill="#fff"/>
  <path id="パス_3" data-name="パス 3" d="M3.319,12.687s2.48-.383,3.1-5.456S8.187-.137,9.428.149s1.767,2.3,1.856,4.309a18.673,18.673,0,0,1-.5,4.408s4.566.092,5.272.092,3.01,1.149,2.747,3.062-2.21,9.375-2.21,9.375-.976,2.777-2.921,3.062-10.358,0-10.358,0V12.687Z" transform="translate(4.171 -0.125)" fill="#fff"/>
</svg>
