<?xml version="1.0" encoding="utf-8"?>
<!-- Generator: Adobe Illustrator 16.0.0, SVG Export Plug-In . SVG Version: 6.00 Build 0)  -->
<!DOCTYPE svg PUBLIC "-//W3C//DTD SVG 1.1//EN" "http://www.w3.org/Graphics/SVG/1.1/DTD/svg11.dtd">
<svg version="1.1" id="レイヤー_1" xmlns="http://www.w3.org/2000/svg" xmlns:xlink="http://www.w3.org/1999/xlink" x="0px"
	 y="0px" width="40px" height="40px" viewBox="0 0 40 40" enable-background="new 0 0 40 40" xml:space="preserve">
<g id="レイヤー_2">
	<g id="Image">
		<path fill="none" stroke="#444D52" stroke-miterlimit="10" d="M15.071,32.979c12.061,0,18.648-9.99,18.648-18.648
			c0-0.284-0.006-0.566-0.02-0.848c1.283-0.928,2.391-2.077,3.27-3.394c-1.195,0.531-2.465,0.879-3.764,1.032
			c1.368-0.819,2.393-2.107,2.883-3.625c-1.287,0.763-2.694,1.301-4.162,1.591c-2.482-2.64-6.634-2.768-9.273-0.285
			c-1.703,1.602-2.425,3.987-1.896,6.265c-5.271-0.265-10.182-2.755-13.509-6.851c-1.741,2.995-0.852,6.827,2.029,8.75
			c-1.041-0.031-2.059-0.313-2.968-0.82c0,0.028,0,0.056,0,0.083c0,3.121,2.2,5.808,5.258,6.427
			c-0.965,0.262-1.978,0.301-2.961,0.111c0.858,2.67,3.319,4.5,6.124,4.553c-2.321,1.824-5.188,2.814-8.14,2.811
			c-0.523-0.002-1.046-0.033-1.565-0.096c2.997,1.924,6.485,2.943,10.046,2.939"/>
	</g>
</g>
</svg>
