<?xml version="1.0" encoding="utf-8"?>
<!-- Generator: Adobe Illustrator 16.0.0, SVG Export Plug-In . SVG Version: 6.00 Build 0)  -->
<!DOCTYPE svg PUBLIC "-//W3C//DTD SVG 1.1//EN" "http://www.w3.org/Graphics/SVG/1.1/DTD/svg11.dtd">
<svg version="1.1" id="レイヤー_1" xmlns="http://www.w3.org/2000/svg" xmlns:xlink="http://www.w3.org/1999/xlink" x="0px"
	 y="0px" width="40px" height="40px" viewBox="0 0 40 40" enable-background="new 0 0 40 40" xml:space="preserve">
<path fill="#444E52" stroke="#FFFFFF" stroke-width="1.4" stroke-miterlimit="10" d="M8.031,8.764h8.684
	c0,0,1.362-0.307,1.362,1.361s-1.158,1.431-1.158,1.431L8.27,11.567c0,0-0.478-0.113-0.478,0.397s0,19.684,0,19.684
	s-0.068,0.576,0.579,0.576s19.512,0,19.512,0s0.577,0.239,0.577-0.578c0-0.816,0-8.682,0-8.682s-0.272-1.09,1.396-1.09
	c1.67,0,1.328,1.156,1.328,1.156l0.028,9.227c0,0-0.232,2.727-2.684,2.727s-20.74,0-20.74,0S5,35.02,5,31.988s0-20.364,0-20.364
	S5,8.764,8.031,8.764z"/>
<path fill="#444E52" stroke="#FFFFFF" stroke-width="1.6" stroke-miterlimit="10" d="M12.832,24.87l15.867-15.8l-2.86-2.86
	c0,0-0.646-1.192,0.614-1.192s7.423,0,7.423,0S35,4.916,35,5.938c0,1.021,0,7.525,0,7.525s-0.324,1.652-1.464,0.512
	c-1.141-1.141-2.622-2.622-2.622-2.622L15.011,27.287c0,0-0.426,0.529-0.954,0c-0.528-0.527-1.43-1.326-1.43-1.326
	S12.27,25.434,12.832,24.87z"/>
</svg>
