<svg xmlns="http://www.w3.org/2000/svg" width="25" height="17.614" viewBox="0 0 25 17.614"><defs><style>.a{fill:#575f65;}</style></defs><g transform="translate(-92.772 -66.193)"><path class="a" d="M117.251,68.943a3.148,3.148,0,0,0-2.21-2.223c-1.956-.527-9.77-.527-9.77-.527s-7.811,0-9.77.527a3.149,3.149,0,0,0-2.207,2.223,35.469,35.469,0,0,0,0,12.114A3.149,3.149,0,0,0,95.5,83.28c1.953.527,9.766.527,9.766.527s7.813,0,9.768-.527a3.146,3.146,0,0,0,2.212-2.227,35.379,35.379,0,0,0,0-12.11Zm-14.53,9.776V71.283L109.251,75Z"/></g></svg>