<?xml version="1.0" encoding="utf-8"?>
<!-- Generator: Adobe Illustrator 16.0.0, SVG Export Plug-In . SVG Version: 6.00 Build 0)  -->
<!DOCTYPE svg PUBLIC "-//W3C//DTD SVG 1.1//EN" "http://www.w3.org/Graphics/SVG/1.1/DTD/svg11.dtd">
<svg version="1.1" id="レイヤー_1" xmlns="http://www.w3.org/2000/svg" xmlns:xlink="http://www.w3.org/1999/xlink" x="0px"
	 y="0px" width="184.25px" height="104.88px" viewBox="0 0 184.25 104.88" enable-background="new 0 0 184.25 104.88"
	 xml:space="preserve">
<g>
	<path fill="#444D52" d="M31.747,24.475l1.152-1.332l2.808,2.16c-0.216,0.252-0.684,0.432-1.368,0.504
		c-0.36,4.248-1.08,6.947-2.376,7.811c-0.9,0.576-1.908,0.792-3.383,0.792c0-1.44-0.432-1.656-3.312-2.124l0.036-0.576
		c1.044,0.036,3.312,0.108,4.032,0.108c0.612,0,0.9,0,1.188-0.216c0.648-0.54,1.188-2.736,1.512-6.263H20.912v10.079
		c0,0.18-0.756,0.756-1.944,0.756h-0.36v-9.754c-3.744,3.923-9.251,6.983-15.37,8.999l-0.36-0.612
		c5.327-2.304,10.223-5.795,13.354-9.467H8.494c-0.216,0.72-0.396,1.404-0.576,1.98c-0.324,0.144-0.648,0.252-1.08,0.252
		c-0.36,0-0.792-0.072-1.368-0.252c0.936-3.096,2.124-7.487,2.664-9.935l2.591,1.224h7.883V13.46H6.046l-0.252-0.864h24.297
		l1.044-1.332l2.987,2.088c-0.216,0.252-0.756,0.54-1.368,0.648v6.335c0,0.072-0.72,0.756-2.34,0.756v-1.62h-9.502v5.003H31.747z
		 M11.373,7.593c1.836,0.972,2.448,2.087,2.448,2.916c0,0.792-0.54,1.368-1.188,1.368c-0.288,0-0.648-0.144-0.936-0.468
		c-0.144-1.188-0.828-2.771-1.62-3.815H8.098c-1.368,2.052-2.916,3.815-4.5,5.003l-0.54-0.36c1.728-2.087,3.563-5.723,4.751-9.467
		l3.312,1.224c-0.18,0.396-0.468,0.576-1.296,0.54c-0.36,0.756-0.756,1.476-1.188,2.195h6.767l1.404-1.872l2.771,1.98
		c-0.288,0.54-0.684,0.756-1.656,0.756H11.373z M9.969,19.471c-0.324,1.332-0.792,3.204-1.26,5.003h9.899v-5.003H9.969z
		 M33.366,4.677l3.024,2.16c-0.288,0.54-0.684,0.756-1.692,0.756h-8.099c2.016,0.9,2.7,2.052,2.7,2.987
		c0,0.792-0.54,1.404-1.224,1.404c-0.324,0-0.648-0.144-0.972-0.432c-0.252-1.26-1.224-2.88-2.268-3.959h-2.879
		c-1.548,1.872-3.276,3.383-5.04,4.391l-0.468-0.432c2.016-1.836,4.211-5.147,5.687-8.783l3.275,1.476
		c-0.144,0.324-0.396,0.468-0.899,0.468c-0.144,0-0.288,0-0.468-0.036c-0.432,0.72-0.9,1.404-1.404,2.052h9.143L33.366,4.677z
		 M20.912,13.46v5.147h9.502V13.46H20.912z"/>
	<path fill="#444D52" d="M52.198,20.335c1.332-2.196,3.635-3.671,6.551-3.671c4.967,0,8.063,3.383,8.063,8.099
		c0,5.111-3.096,8.927-8.747,8.927c-4.896,0-8.999-3.563-8.999-12.995c0-6.371,2.052-14.038,9.467-14.038
		c4.751,0,7.019,2.771,7.019,4.788c0,0.864-0.396,1.476-1.116,1.476c-0.864,0-1.26-0.54-1.8-1.836
		c-0.648-1.835-2.016-3.023-4.283-3.023c-4.751,0-6.299,6.695-6.263,12.274H52.198z M58.137,18.139
		c-3.599,0-5.867,2.988-5.867,5.867c0,3.888,1.944,8.315,5.759,8.315c3.888,0,5.759-3.599,5.759-7.379
		C63.788,23.179,63.032,18.139,58.137,18.139z"/>
	<path fill="#444D52" d="M71.494,12.668l1.152-5.543H88.52l0.36,0.648c-5.867,7.451-9.035,17.026-9.251,25.809H76.39
		c0.288-11.159,6.335-20.41,9.358-24.153h-9.215c-2.52,0-2.879,0.288-3.671,3.24H71.494z"/>
	<path fill="#444D52" d="M130.459,5.253l3.131,2.34c-0.252,0.288-0.863,0.576-1.584,0.72v26.385c0,0.108-0.611,0.936-2.34,0.936
		v-2.628h-23.541v2.088c0,0.036-0.18,0.972-2.303,0.972V5.577l2.555,1.224h22.93L130.459,5.253z M106.125,32.142h23.541V7.665
		h-23.541V32.142z M122.936,12.704l3.06,2.196c-0.252,0.252-0.792,0.54-1.512,0.684v10.655c0,0.072-0.72,0.792-2.231,0.792v-2.196
		h-9.107v1.728c0,0-0.252,0.756-2.195,0.756V13.028l2.412,1.08h8.53L122.936,12.704z M113.145,23.971h9.107v-8.999h-9.107V23.971z"
		/>
	<path fill="#444D52" d="M15.598,86.65c2.88-0.78,6-1.74,9.12-2.641l0.24,0.9c-4.02,1.979-9.78,4.859-17.459,8.279
		c-0.24,0.78-0.72,1.26-1.26,1.5l-2.52-4.859c1.74-0.36,4.56-1.141,8.04-2.101V71.531h-6.84l-0.42-1.44h7.26V54.672H4.438
		l-0.36-1.44h13.5l2.64-3.6l5.1,3.78c-0.48,0.9-1.2,1.261-2.76,1.261h-6.96v15.419h1.98l2.4-3.36l4.44,3.54
		c-0.48,0.899-1.14,1.261-2.76,1.261h-6.06V86.65z M55.316,94.75l5.339,3.959c-0.48,0.9-1.14,1.261-2.82,1.261H20.518l-0.42-1.44
		h19.559V87.37H26.277l-0.42-1.44h13.799V75.49h-8.76v2.7c0,0.06-0.48,1.439-3.84,1.439V49.091l4.14,1.92h20.699l1.86-2.4l5.16,3.72
		c-0.42,0.48-1.38,0.959-2.58,1.2V77.65c0,0.18-1.2,1.439-3.84,1.439v-3.6h-9V85.93h6.84l2.7-3.539l5.16,3.72
		c-0.48,0.899-1.2,1.26-2.88,1.26h-11.82v11.159h9L55.316,94.75z M39.657,52.451h-8.76v10.02h8.76V52.451z M30.897,74.051h8.76
		v-10.14h-8.76V74.051z M52.496,52.451h-9v10.02h9V52.451z M43.497,74.051h9v-10.14h-9V74.051z"/>
	<path fill="#444D52" d="M113.996,91.569l5.82,4.08c-0.48,0.84-1.141,1.26-2.881,1.26H64.438l-0.42-1.439h25.619V56.891H68.578
		l-0.42-1.439h38.698l3.12-3.9l5.76,4.08c-0.48,0.9-1.2,1.26-2.88,1.26H93.657V95.47h17.279L113.996,91.569z"/>
	<path fill="#444D52" d="M134.397,61.691v2.76c0,11.159-0.6,26.698-10.019,37.738l-0.961-0.6c6.42-11.22,7.08-24.779,7.08-37.139
		v-16.32l4.68,1.98h34.979l1.8-2.34l5.28,3.66c-0.42,0.479-1.38,1.02-2.58,1.26v10.08c0,0.119-1.2,1.199-3.9,1.199v-2.279H134.397z
		 M155.217,82.51c1.68,3.24,4.14,5.94,7.08,8.22c3.3-2.159,7.38-5.1,9.479-6.959l4.56,3.18c-0.3,0.359-0.66,0.6-1.08,0.6
		c-0.359,0-0.72-0.12-1.199-0.3c-2.521,1.26-6.72,3.06-10.44,4.439c4.62,3.18,10.38,5.34,16.68,6.66l-0.06,0.66
		c-1.681,0.239-2.88,1.439-3.36,3.3c-11.039-3.48-19.02-9.54-22.979-19.8h-7.62v13.74c4.56-0.48,9.84-1.021,15.18-1.62l0.12,1.02
		c-5.22,1.44-12.72,3.18-23.22,5.34c-0.24,0.78-0.84,1.14-1.439,1.32l-2.46-5.04c1.859-0.12,4.68-0.36,8.1-0.66v-14.1h-8.7
		l-0.359-1.439h11.819v-9.3h-9.6l-0.42-1.44h10.02v-7.079l6.239,0.54c-0.06,0.84-0.659,1.199-2.399,1.5v5.039h12.6v-7.02l6.18,0.541
		c-0.06,0.84-0.66,1.199-2.4,1.439v5.039h4.021l2.64-3.359l4.979,3.54c-0.479,0.899-1.14,1.26-2.819,1.26h-8.82v9.3h6.601l2.64-3.48
		l4.979,3.66c-0.479,0.9-1.14,1.26-2.819,1.26H155.217z M170.756,51.551h-36.358v8.7h36.358V51.551z M161.757,71.771h-12.6v9.3h12.6
		V71.771z"/>
</g>
</svg>
